<svg width="144" height="144" viewBox="0 0 144 144" fill="none" xmlns="http://www.w3.org/2000/svg">
<path d="M72 53.5001H72.0006C75.4377 53.5043 78.3905 54.7335 80.8316 57.1745C83.2725 59.6155 84.4999 62.5662 84.5 65.9995C84.5 65.9997 84.5 65.9999 84.5 66.0001H84L72 53.5001ZM72 53.5001C68.5662 53.5001 65.6152 54.7296 63.1741 57.1748C60.7336 59.6196 59.5042 62.57 59.5 65.9995V66.0001M72 53.5001L59.5 66.0001M59.5 66.0001C59.5 69.4339 60.7295 72.3867 63.1744 74.8316M59.5 66.0001L63.1744 74.8316M63.1744 74.8316C65.6193 77.2765 68.5701 78.5041 72 78.5001L63.1744 74.8316ZM29.6752 86.8176L35.5733 82.9302C36.2773 90.9873 37.3569 97.8865 38.8154 103.623C40.2908 109.426 42.5811 115.845 45.6822 122.877L24.5 131.264V96.4501C24.5 94.5331 24.9554 92.7132 25.87 90.9839C26.7824 89.2587 28.0482 87.8728 29.6721 86.8196L29.6752 86.8176ZM98.5 76.0499V76.0501C98.5 83.8135 97.654 91.3516 95.9629 98.6655C94.2949 105.879 91.7557 112.824 88.3445 119.5H55.6514C52.243 113.017 49.7049 106.147 48.0373 98.8881C46.3461 91.5263 45.5 83.9139 45.5 76.0501C45.5 63.6182 47.962 51.9142 52.8843 40.9326C57.7486 30.0803 64.1249 21.8504 72.0002 16.2132C79.8792 21.8465 86.2574 30.0763 91.1217 40.9325C96.0439 51.9181 98.504 63.6222 98.5 76.0499ZM119.5 131.264L98.3178 122.877C101.419 115.845 103.709 109.426 105.185 103.623C106.643 97.8865 107.723 90.9873 108.427 82.9302L114.325 86.8176L114.328 86.8199C115.956 87.8732 117.224 89.259 118.136 90.9839C119.05 92.7129 119.504 94.5325 119.5 96.4491V96.4501V131.264Z" fill="#ACACAC" fill-opacity="0.2" style="mix-blend-mode:luminosity"/>
<path d="M72 53.5001H72.0006C75.4377 53.5043 78.3905 54.7335 80.8316 57.1745C83.2725 59.6155 84.4999 62.5662 84.5 65.9995C84.5 65.9997 84.5 65.9999 84.5 66.0001H84L72 53.5001ZM72 53.5001C68.5662 53.5001 65.6152 54.7296 63.1741 57.1748C60.7336 59.6196 59.5042 62.57 59.5 65.9995V66.0001M72 53.5001L59.5 66.0001M59.5 66.0001C59.5 69.4339 60.7295 72.3867 63.1744 74.8316M59.5 66.0001L63.1744 74.8316M63.1744 74.8316C65.6193 77.2765 68.5701 78.5041 72 78.5001L63.1744 74.8316ZM29.6752 86.8176L35.5733 82.9302C36.2773 90.9873 37.3569 97.8865 38.8154 103.623C40.2908 109.426 42.5811 115.845 45.6822 122.877L24.5 131.264V96.4501C24.5 94.5331 24.9554 92.7132 25.87 90.9839C26.7824 89.2587 28.0482 87.8728 29.6721 86.8196L29.6752 86.8176ZM98.5 76.0499V76.0501C98.5 83.8135 97.654 91.3516 95.9629 98.6655C94.2949 105.879 91.7557 112.824 88.3445 119.5H55.6514C52.243 113.017 49.7049 106.147 48.0373 98.8881C46.3461 91.5263 45.5 83.9139 45.5 76.0501C45.5 63.6182 47.962 51.9142 52.8843 40.9326C57.7486 30.0803 64.1249 21.8504 72.0002 16.2132C79.8792 21.8465 86.2574 30.0763 91.1217 40.9325C96.0439 51.9181 98.504 63.6222 98.5 76.0499ZM119.5 131.264L98.3178 122.877C101.419 115.845 103.709 109.426 105.185 103.623C106.643 97.8865 107.723 90.9873 108.427 82.9302L114.325 86.8176L114.328 86.8199C115.956 87.8732 117.224 89.259 118.136 90.9839C119.05 92.7129 119.504 94.5325 119.5 96.4491V96.4501V131.264Z" fill="#D5D5D5" fill-opacity="0.3" style="mix-blend-mode:multiply"/>
<path d="M72 53.5001H72.0006C75.4377 53.5043 78.3905 54.7335 80.8316 57.1745C83.2725 59.6155 84.4999 62.5662 84.5 65.9995C84.5 65.9997 84.5 65.9999 84.5 66.0001H84L72 53.5001ZM72 53.5001C68.5662 53.5001 65.6152 54.7296 63.1741 57.1748C60.7336 59.6196 59.5042 62.57 59.5 65.9995V66.0001M72 53.5001L59.5 66.0001M59.5 66.0001C59.5 69.4339 60.7295 72.3867 63.1744 74.8316M59.5 66.0001L63.1744 74.8316M63.1744 74.8316C65.6193 77.2765 68.5701 78.5041 72 78.5001L63.1744 74.8316ZM29.6752 86.8176L35.5733 82.9302C36.2773 90.9873 37.3569 97.8865 38.8154 103.623C40.2908 109.426 42.5811 115.845 45.6822 122.877L24.5 131.264V96.4501C24.5 94.5331 24.9554 92.7132 25.87 90.9839C26.7824 89.2587 28.0482 87.8728 29.6721 86.8196L29.6752 86.8176ZM98.5 76.0499V76.0501C98.5 83.8135 97.654 91.3516 95.9629 98.6655C94.2949 105.879 91.7557 112.824 88.3445 119.5H55.6514C52.243 113.017 49.7049 106.147 48.0373 98.8881C46.3461 91.5263 45.5 83.9139 45.5 76.0501C45.5 63.6182 47.962 51.9142 52.8843 40.9326C57.7486 30.0803 64.1249 21.8504 72.0002 16.2132C79.8792 21.8465 86.2574 30.0763 91.1217 40.9325C96.0439 51.9181 98.504 63.6222 98.5 76.0499ZM119.5 131.264L98.3178 122.877C101.419 115.845 103.709 109.426 105.185 103.623C106.643 97.8865 107.723 90.9873 108.427 82.9302L114.325 86.8176L114.328 86.8199C115.956 87.8732 117.224 89.259 118.136 90.9839C119.05 92.7129 119.504 94.5325 119.5 96.4491V96.4501V131.264Z" fill="url(#paint0_radial_3335_630)" fill-opacity="0.25" style="mix-blend-mode:overlay"/>
<path d="M72 53.5001H72.0006C75.4377 53.5043 78.3905 54.7335 80.8316 57.1745C83.2725 59.6155 84.4999 62.5662 84.5 65.9995C84.5 65.9997 84.5 65.9999 84.5 66.0001H84L72 53.5001ZM72 53.5001C68.5662 53.5001 65.6152 54.7296 63.1741 57.1748C60.7336 59.6196 59.5042 62.57 59.5 65.9995V66.0001M72 53.5001L59.5 66.0001M59.5 66.0001C59.5 69.4339 60.7295 72.3867 63.1744 74.8316M59.5 66.0001L63.1744 74.8316M63.1744 74.8316C65.6193 77.2765 68.5701 78.5041 72 78.5001L63.1744 74.8316ZM29.6752 86.8176L35.5733 82.9302C36.2773 90.9873 37.3569 97.8865 38.8154 103.623C40.2908 109.426 42.5811 115.845 45.6822 122.877L24.5 131.264V96.4501C24.5 94.5331 24.9554 92.7132 25.87 90.9839C26.7824 89.2587 28.0482 87.8728 29.6721 86.8196L29.6752 86.8176ZM98.5 76.0499V76.0501C98.5 83.8135 97.654 91.3516 95.9629 98.6655C94.2949 105.879 91.7557 112.824 88.3445 119.5H55.6514C52.243 113.017 49.7049 106.147 48.0373 98.8881C46.3461 91.5263 45.5 83.9139 45.5 76.0501C45.5 63.6182 47.962 51.9142 52.8843 40.9326C57.7486 30.0803 64.1249 21.8504 72.0002 16.2132C79.8792 21.8465 86.2574 30.0763 91.1217 40.9325C96.0439 51.9181 98.504 63.6222 98.5 76.0499ZM119.5 131.264L98.3178 122.877C101.419 115.845 103.709 109.426 105.185 103.623C106.643 97.8865 107.723 90.9873 108.427 82.9302L114.325 86.8176L114.328 86.8199C115.956 87.8732 117.224 89.259 118.136 90.9839C119.05 92.7129 119.504 94.5325 119.5 96.4491V96.4501V131.264Z" stroke="url(#paint1_linear_3335_630)"/>
<defs>
<radialGradient id="paint0_radial_3335_630" cx="0" cy="0" r="1" gradientUnits="userSpaceOnUse" gradientTransform="translate(72.0003 15.6488) rotate(90) scale(145.133 119.698)">
<stop stop-color="#FFFEFE"/>
<stop offset="1" stop-color="white" stop-opacity="0"/>
</radialGradient>
<linearGradient id="paint1_linear_3335_630" x1="72" y1="16.0001" x2="123.507" y2="117.315" gradientUnits="userSpaceOnUse">
<stop stop-color="#5581FF"/>
<stop offset="1" stop-color="white" stop-opacity="0.19"/>
</linearGradient>
</defs>
</svg>
