<svg width="144" height="144" viewBox="0 0 144 144" fill="none" xmlns="http://www.w3.org/2000/svg">
<path d="M125.5 125.5H18.5V114.5H125.5V125.5ZM24.5 101.5V18.5H47.5V101.5H24.5ZM60.5 18.5H83.5V101.5H60.5V18.5ZM96.5 101.5V18.5H119.5V101.5H96.5Z" fill="#ACACAC" fill-opacity="0.2" style="mix-blend-mode:luminosity"/>
<path d="M125.5 125.5H18.5V114.5H125.5V125.5ZM24.5 101.5V18.5H47.5V101.5H24.5ZM60.5 18.5H83.5V101.5H60.5V18.5ZM96.5 101.5V18.5H119.5V101.5H96.5Z" fill="#D5D5D5" fill-opacity="0.3" style="mix-blend-mode:multiply"/>
<path d="M125.5 125.5H18.5V114.5H125.5V125.5ZM24.5 101.5V18.5H47.5V101.5H24.5ZM60.5 18.5H83.5V101.5H60.5V18.5ZM96.5 101.5V18.5H119.5V101.5H96.5Z" fill="url(#paint0_radial_3335_115)" fill-opacity="0.25" style="mix-blend-mode:overlay"/>
<path d="M125.5 125.5H18.5V114.5H125.5V125.5ZM24.5 101.5V18.5H47.5V101.5H24.5ZM60.5 18.5H83.5V101.5H60.5V18.5ZM96.5 101.5V18.5H119.5V101.5H96.5Z" stroke="url(#paint1_linear_3335_115)"/>
<defs>
<radialGradient id="paint0_radial_3335_115" cx="0" cy="0" r="1" gradientUnits="userSpaceOnUse" gradientTransform="translate(72.0003 18.0452) rotate(90) scale(134.659 134.66)">
<stop stop-color="#FFFEFE"/>
<stop offset="1" stop-color="white" stop-opacity="0"/>
</radialGradient>
<linearGradient id="paint1_linear_3335_115" x1="20.6518" y1="21.4573" x2="128.355" y2="104.998" gradientUnits="userSpaceOnUse">
<stop stop-color="#5581FF"/>
<stop offset="1" stop-color="white" stop-opacity="0.19"/>
</linearGradient>
</defs>
</svg>
