<svg width="144" height="144" viewBox="0 0 144 144" fill="none" xmlns="http://www.w3.org/2000/svg">
<path d="M67.1005 31.6254V32.8325V52.2005C67.1005 53.5001 67.6168 54.7464 68.5357 55.6653C69.4546 56.5843 70.701 57.1005 72.0005 57.1005C73.3001 57.1005 74.5464 56.5843 75.4653 55.6653C76.3843 54.7464 76.9005 53.5001 76.9005 52.2005V32.8325V31.6254L77.7541 32.479L84.7381 39.463L84.7443 39.4692L84.7503 39.4757C85.1989 39.9571 85.7399 40.3432 86.3409 40.611C86.942 40.8788 87.5909 41.0228 88.2488 41.0345C88.9067 41.0461 89.5602 40.925 90.1704 40.6786C90.7805 40.4322 91.3347 40.0653 91.8 39.6C92.2653 39.1347 92.6321 38.5805 92.8786 37.9704C93.125 37.3602 93.2461 36.7067 93.2345 36.0488C93.2228 35.3909 93.0788 34.742 92.811 34.1409C92.5432 33.5399 92.1571 32.9989 91.6757 32.5503L91.6692 32.5443L91.663 32.5381L75.4632 16.3383L67.1005 31.6254ZM67.1005 31.6254L66.247 32.479M67.1005 31.6254L66.247 32.479M66.247 32.479L59.2693 39.4566C58.3412 40.3184 57.1153 40.7874 55.8488 40.7651C54.5793 40.7427 53.3682 40.2284 52.4704 39.3306C51.5726 38.4329 51.0584 37.2217 51.036 35.9523C51.0136 34.6857 51.4827 33.4598 52.3445 32.5317L68.5379 16.3383C69.4566 15.4207 70.702 14.9053 72.0005 14.9053C73.2989 14.9053 74.5442 15.4206 75.463 16.3381L66.247 32.479ZM31.6254 76.9005H32.8325H52.2005C53.5001 76.9005 54.7464 76.3843 55.6653 75.4653C56.5843 74.5464 57.1005 73.3001 57.1005 72.0005C57.1005 70.701 56.5843 69.4546 55.6653 68.5357C54.7464 67.6168 53.5001 67.1005 52.2005 67.1005H32.8325H31.6254L32.479 66.247L39.4566 59.2693C40.3184 58.3412 40.7874 57.1153 40.7651 55.8488C40.7427 54.5793 40.2284 53.3682 39.3306 52.4704C38.4329 51.5726 37.2217 51.0584 35.9523 51.036C34.6857 51.0136 33.4598 51.4827 32.5317 52.3445L16.3383 68.5379C15.4207 69.4566 14.9053 70.702 14.9053 72.0005C14.9053 73.2989 15.4206 74.5442 16.3381 75.463L31.6254 76.9005ZM31.6254 76.9005L32.479 77.7541L39.4566 84.7317C40.3184 85.6599 40.7874 86.8857 40.7651 88.1523C40.7427 89.4217 40.2284 90.6329 39.3306 91.5306C38.4329 92.4284 37.2217 92.9427 35.9523 92.9651C34.6857 92.9874 33.4598 92.5184 32.5317 91.6566L16.3383 75.4632L31.6254 76.9005ZM91.6757 111.451L91.6692 111.457L91.663 111.463L75.4632 127.663C74.5444 128.58 73.299 129.096 72.0005 129.096C70.702 129.096 69.4566 128.58 68.5379 127.663L52.3445 111.469C51.4827 110.541 51.0136 109.315 51.036 108.049C51.0584 106.779 51.5726 105.568 52.4704 104.67C53.3682 103.773 54.5793 103.258 55.8488 103.236C57.1153 103.214 58.3411 103.683 59.2693 104.544L66.247 111.522L67.1005 112.376V111.169V91.8005C67.1005 90.501 67.6168 89.2546 68.5357 88.3357C69.4546 87.4168 70.701 86.9005 72.0005 86.9005C73.3001 86.9005 74.5464 87.4168 75.4653 88.3357C76.3843 89.2546 76.9005 90.501 76.9005 91.8005V111.169V112.376L77.7541 111.522L84.7381 104.538L84.7443 104.532L84.7503 104.525C85.1989 104.044 85.7399 103.658 86.3409 103.39C86.942 103.122 87.5909 102.978 88.2488 102.967C88.9067 102.955 89.5602 103.076 90.1704 103.322C90.7805 103.569 91.3347 103.936 91.8 104.401C92.2653 104.866 92.6321 105.421 92.8786 106.031C93.125 106.641 93.2461 107.294 93.2345 107.952C93.2228 108.61 93.0788 109.259 92.811 109.86C92.5432 110.461 92.1571 111.002 91.6757 111.451ZM111.469 52.3445L127.663 68.5379C128.58 69.4566 129.096 70.702 129.096 72.0005C129.096 73.299 128.58 74.5444 127.663 75.4632L111.463 91.663L111.457 91.6692L111.451 91.6757C111.002 92.1571 110.461 92.5432 109.86 92.811C109.259 93.0788 108.61 93.2228 107.952 93.2345C107.294 93.2461 106.641 93.125 106.031 92.8786C105.421 92.6321 104.866 92.2653 104.401 91.8C103.936 91.3347 103.569 90.7805 103.322 90.1704C103.076 89.5602 102.955 88.9067 102.967 88.2488C102.978 87.5909 103.122 86.942 103.39 86.3409C103.658 85.7399 104.044 85.1989 104.525 84.7503L104.532 84.7443L104.538 84.7381L111.522 77.7541L112.376 76.9005H111.169H91.8005C90.501 76.9005 89.2546 76.3843 88.3357 75.4653C87.4168 74.5464 86.9005 73.3001 86.9005 72.0005C86.9005 70.701 87.4168 69.4546 88.3357 68.5357C89.2546 67.6168 90.501 67.1005 91.8005 67.1005H111.169H112.376L111.522 66.247L104.544 59.2693C103.683 58.3411 103.214 57.1153 103.236 55.8488C103.258 54.5793 103.773 53.3682 104.67 52.4704C105.568 51.5726 106.779 51.0584 108.049 51.036C109.315 51.0136 110.541 51.4827 111.469 52.3445Z" fill="#ACACAC" fill-opacity="0.2" style="mix-blend-mode:luminosity"/>
<path d="M67.1005 31.6254V32.8325V52.2005C67.1005 53.5001 67.6168 54.7464 68.5357 55.6653C69.4546 56.5843 70.701 57.1005 72.0005 57.1005C73.3001 57.1005 74.5464 56.5843 75.4653 55.6653C76.3843 54.7464 76.9005 53.5001 76.9005 52.2005V32.8325V31.6254L77.7541 32.479L84.7381 39.463L84.7443 39.4692L84.7503 39.4757C85.1989 39.9571 85.7399 40.3432 86.3409 40.611C86.942 40.8788 87.5909 41.0228 88.2488 41.0345C88.9067 41.0461 89.5602 40.925 90.1704 40.6786C90.7805 40.4322 91.3347 40.0653 91.8 39.6C92.2653 39.1347 92.6321 38.5805 92.8786 37.9704C93.125 37.3602 93.2461 36.7067 93.2345 36.0488C93.2228 35.3909 93.0788 34.742 92.811 34.1409C92.5432 33.5399 92.1571 32.9989 91.6757 32.5503L91.6692 32.5443L91.663 32.5381L75.4632 16.3383L67.1005 31.6254ZM67.1005 31.6254L66.247 32.479M67.1005 31.6254L66.247 32.479M66.247 32.479L59.2693 39.4566C58.3412 40.3184 57.1153 40.7874 55.8488 40.7651C54.5793 40.7427 53.3682 40.2284 52.4704 39.3306C51.5726 38.4329 51.0584 37.2217 51.036 35.9523C51.0136 34.6857 51.4827 33.4598 52.3445 32.5317L68.5379 16.3383C69.4566 15.4207 70.702 14.9053 72.0005 14.9053C73.2989 14.9053 74.5442 15.4206 75.463 16.3381L66.247 32.479ZM31.6254 76.9005H32.8325H52.2005C53.5001 76.9005 54.7464 76.3843 55.6653 75.4653C56.5843 74.5464 57.1005 73.3001 57.1005 72.0005C57.1005 70.701 56.5843 69.4546 55.6653 68.5357C54.7464 67.6168 53.5001 67.1005 52.2005 67.1005H32.8325H31.6254L32.479 66.247L39.4566 59.2693C40.3184 58.3412 40.7874 57.1153 40.7651 55.8488C40.7427 54.5793 40.2284 53.3682 39.3306 52.4704C38.4329 51.5726 37.2217 51.0584 35.9523 51.036C34.6857 51.0136 33.4598 51.4827 32.5317 52.3445L16.3383 68.5379C15.4207 69.4566 14.9053 70.702 14.9053 72.0005C14.9053 73.2989 15.4206 74.5442 16.3381 75.463L31.6254 76.9005ZM31.6254 76.9005L32.479 77.7541L39.4566 84.7317C40.3184 85.6599 40.7874 86.8857 40.7651 88.1523C40.7427 89.4217 40.2284 90.6329 39.3306 91.5306C38.4329 92.4284 37.2217 92.9427 35.9523 92.9651C34.6857 92.9874 33.4598 92.5184 32.5317 91.6566L16.3383 75.4632L31.6254 76.9005ZM91.6757 111.451L91.6692 111.457L91.663 111.463L75.4632 127.663C74.5444 128.58 73.299 129.096 72.0005 129.096C70.702 129.096 69.4566 128.58 68.5379 127.663L52.3445 111.469C51.4827 110.541 51.0136 109.315 51.036 108.049C51.0584 106.779 51.5726 105.568 52.4704 104.67C53.3682 103.773 54.5793 103.258 55.8488 103.236C57.1153 103.214 58.3411 103.683 59.2693 104.544L66.247 111.522L67.1005 112.376V111.169V91.8005C67.1005 90.501 67.6168 89.2546 68.5357 88.3357C69.4546 87.4168 70.701 86.9005 72.0005 86.9005C73.3001 86.9005 74.5464 87.4168 75.4653 88.3357C76.3843 89.2546 76.9005 90.501 76.9005 91.8005V111.169V112.376L77.7541 111.522L84.7381 104.538L84.7443 104.532L84.7503 104.525C85.1989 104.044 85.7399 103.658 86.3409 103.39C86.942 103.122 87.5909 102.978 88.2488 102.967C88.9067 102.955 89.5602 103.076 90.1704 103.322C90.7805 103.569 91.3347 103.936 91.8 104.401C92.2653 104.866 92.6321 105.421 92.8786 106.031C93.125 106.641 93.2461 107.294 93.2345 107.952C93.2228 108.61 93.0788 109.259 92.811 109.86C92.5432 110.461 92.1571 111.002 91.6757 111.451ZM111.469 52.3445L127.663 68.5379C128.58 69.4566 129.096 70.702 129.096 72.0005C129.096 73.299 128.58 74.5444 127.663 75.4632L111.463 91.663L111.457 91.6692L111.451 91.6757C111.002 92.1571 110.461 92.5432 109.86 92.811C109.259 93.0788 108.61 93.2228 107.952 93.2345C107.294 93.2461 106.641 93.125 106.031 92.8786C105.421 92.6321 104.866 92.2653 104.401 91.8C103.936 91.3347 103.569 90.7805 103.322 90.1704C103.076 89.5602 102.955 88.9067 102.967 88.2488C102.978 87.5909 103.122 86.942 103.39 86.3409C103.658 85.7399 104.044 85.1989 104.525 84.7503L104.532 84.7443L104.538 84.7381L111.522 77.7541L112.376 76.9005H111.169H91.8005C90.501 76.9005 89.2546 76.3843 88.3357 75.4653C87.4168 74.5464 86.9005 73.3001 86.9005 72.0005C86.9005 70.701 87.4168 69.4546 88.3357 68.5357C89.2546 67.6168 90.501 67.1005 91.8005 67.1005H111.169H112.376L111.522 66.247L104.544 59.2693C103.683 58.3411 103.214 57.1153 103.236 55.8488C103.258 54.5793 103.773 53.3682 104.67 52.4704C105.568 51.5726 106.779 51.0584 108.049 51.036C109.315 51.0136 110.541 51.4827 111.469 52.3445Z" fill="#D5D5D5" fill-opacity="0.3" style="mix-blend-mode:multiply"/>
<path d="M67.1005 31.6254V32.8325V52.2005C67.1005 53.5001 67.6168 54.7464 68.5357 55.6653C69.4546 56.5843 70.701 57.1005 72.0005 57.1005C73.3001 57.1005 74.5464 56.5843 75.4653 55.6653C76.3843 54.7464 76.9005 53.5001 76.9005 52.2005V32.8325V31.6254L77.7541 32.479L84.7381 39.463L84.7443 39.4692L84.7503 39.4757C85.1989 39.9571 85.7399 40.3432 86.3409 40.611C86.942 40.8788 87.5909 41.0228 88.2488 41.0345C88.9067 41.0461 89.5602 40.925 90.1704 40.6786C90.7805 40.4322 91.3347 40.0653 91.8 39.6C92.2653 39.1347 92.6321 38.5805 92.8786 37.9704C93.125 37.3602 93.2461 36.7067 93.2345 36.0488C93.2228 35.3909 93.0788 34.742 92.811 34.1409C92.5432 33.5399 92.1571 32.9989 91.6757 32.5503L91.6692 32.5443L91.663 32.5381L75.4632 16.3383L67.1005 31.6254ZM67.1005 31.6254L66.247 32.479M67.1005 31.6254L66.247 32.479M66.247 32.479L59.2693 39.4566C58.3412 40.3184 57.1153 40.7874 55.8488 40.7651C54.5793 40.7427 53.3682 40.2284 52.4704 39.3306C51.5726 38.4329 51.0584 37.2217 51.036 35.9523C51.0136 34.6857 51.4827 33.4598 52.3445 32.5317L68.5379 16.3383C69.4566 15.4207 70.702 14.9053 72.0005 14.9053C73.2989 14.9053 74.5442 15.4206 75.463 16.3381L66.247 32.479ZM31.6254 76.9005H32.8325H52.2005C53.5001 76.9005 54.7464 76.3843 55.6653 75.4653C56.5843 74.5464 57.1005 73.3001 57.1005 72.0005C57.1005 70.701 56.5843 69.4546 55.6653 68.5357C54.7464 67.6168 53.5001 67.1005 52.2005 67.1005H32.8325H31.6254L32.479 66.247L39.4566 59.2693C40.3184 58.3412 40.7874 57.1153 40.7651 55.8488C40.7427 54.5793 40.2284 53.3682 39.3306 52.4704C38.4329 51.5726 37.2217 51.0584 35.9523 51.036C34.6857 51.0136 33.4598 51.4827 32.5317 52.3445L16.3383 68.5379C15.4207 69.4566 14.9053 70.702 14.9053 72.0005C14.9053 73.2989 15.4206 74.5442 16.3381 75.463L31.6254 76.9005ZM31.6254 76.9005L32.479 77.7541L39.4566 84.7317C40.3184 85.6599 40.7874 86.8857 40.7651 88.1523C40.7427 89.4217 40.2284 90.6329 39.3306 91.5306C38.4329 92.4284 37.2217 92.9427 35.9523 92.9651C34.6857 92.9874 33.4598 92.5184 32.5317 91.6566L16.3383 75.4632L31.6254 76.9005ZM91.6757 111.451L91.6692 111.457L91.663 111.463L75.4632 127.663C74.5444 128.58 73.299 129.096 72.0005 129.096C70.702 129.096 69.4566 128.58 68.5379 127.663L52.3445 111.469C51.4827 110.541 51.0136 109.315 51.036 108.049C51.0584 106.779 51.5726 105.568 52.4704 104.67C53.3682 103.773 54.5793 103.258 55.8488 103.236C57.1153 103.214 58.3411 103.683 59.2693 104.544L66.247 111.522L67.1005 112.376V111.169V91.8005C67.1005 90.501 67.6168 89.2546 68.5357 88.3357C69.4546 87.4168 70.701 86.9005 72.0005 86.9005C73.3001 86.9005 74.5464 87.4168 75.4653 88.3357C76.3843 89.2546 76.9005 90.501 76.9005 91.8005V111.169V112.376L77.7541 111.522L84.7381 104.538L84.7443 104.532L84.7503 104.525C85.1989 104.044 85.7399 103.658 86.3409 103.39C86.942 103.122 87.5909 102.978 88.2488 102.967C88.9067 102.955 89.5602 103.076 90.1704 103.322C90.7805 103.569 91.3347 103.936 91.8 104.401C92.2653 104.866 92.6321 105.421 92.8786 106.031C93.125 106.641 93.2461 107.294 93.2345 107.952C93.2228 108.61 93.0788 109.259 92.811 109.86C92.5432 110.461 92.1571 111.002 91.6757 111.451ZM111.469 52.3445L127.663 68.5379C128.58 69.4566 129.096 70.702 129.096 72.0005C129.096 73.299 128.58 74.5444 127.663 75.4632L111.463 91.663L111.457 91.6692L111.451 91.6757C111.002 92.1571 110.461 92.5432 109.86 92.811C109.259 93.0788 108.61 93.2228 107.952 93.2345C107.294 93.2461 106.641 93.125 106.031 92.8786C105.421 92.6321 104.866 92.2653 104.401 91.8C103.936 91.3347 103.569 90.7805 103.322 90.1704C103.076 89.5602 102.955 88.9067 102.967 88.2488C102.978 87.5909 103.122 86.942 103.39 86.3409C103.658 85.7399 104.044 85.1989 104.525 84.7503L104.532 84.7443L104.538 84.7381L111.522 77.7541L112.376 76.9005H111.169H91.8005C90.501 76.9005 89.2546 76.3843 88.3357 75.4653C87.4168 74.5464 86.9005 73.3001 86.9005 72.0005C86.9005 70.701 87.4168 69.4546 88.3357 68.5357C89.2546 67.6168 90.501 67.1005 91.8005 67.1005H111.169H112.376L111.522 66.247L104.544 59.2693C103.683 58.3411 103.214 57.1153 103.236 55.8488C103.258 54.5793 103.773 53.3682 104.67 52.4704C105.568 51.5726 106.779 51.0584 108.049 51.036C109.315 51.0136 110.541 51.4827 111.469 52.3445Z" fill="url(#paint0_radial_3335_532)" fill-opacity="0.25" style="mix-blend-mode:overlay"/>
<path d="M67.1005 31.6254V32.8325V52.2005C67.1005 53.5001 67.6168 54.7464 68.5357 55.6653C69.4546 56.5843 70.701 57.1005 72.0005 57.1005C73.3001 57.1005 74.5464 56.5843 75.4653 55.6653C76.3843 54.7464 76.9005 53.5001 76.9005 52.2005V32.8325V31.6254L77.7541 32.479L84.7381 39.463L84.7443 39.4692L84.7503 39.4757C85.1989 39.9571 85.7399 40.3432 86.3409 40.611C86.942 40.8788 87.5909 41.0228 88.2488 41.0345C88.9067 41.0461 89.5602 40.925 90.1704 40.6786C90.7805 40.4322 91.3347 40.0653 91.8 39.6C92.2653 39.1347 92.6321 38.5805 92.8786 37.9704C93.125 37.3602 93.2461 36.7067 93.2345 36.0488C93.2228 35.3909 93.0788 34.742 92.811 34.1409C92.5432 33.5399 92.1571 32.9989 91.6757 32.5503L91.6692 32.5443L91.663 32.5381L75.4632 16.3383L67.1005 31.6254ZM67.1005 31.6254L66.247 32.479M67.1005 31.6254L66.247 32.479M66.247 32.479L59.2693 39.4566C58.3412 40.3184 57.1153 40.7874 55.8488 40.7651C54.5793 40.7427 53.3682 40.2284 52.4704 39.3306C51.5726 38.4329 51.0584 37.2217 51.036 35.9523C51.0136 34.6857 51.4827 33.4598 52.3445 32.5317L68.5379 16.3383C69.4566 15.4207 70.702 14.9053 72.0005 14.9053C73.2989 14.9053 74.5442 15.4206 75.463 16.3381L66.247 32.479ZM31.6254 76.9005H32.8325H52.2005C53.5001 76.9005 54.7464 76.3843 55.6653 75.4653C56.5843 74.5464 57.1005 73.3001 57.1005 72.0005C57.1005 70.701 56.5843 69.4546 55.6653 68.5357C54.7464 67.6168 53.5001 67.1005 52.2005 67.1005H32.8325H31.6254L32.479 66.247L39.4566 59.2693C40.3184 58.3412 40.7874 57.1153 40.7651 55.8488C40.7427 54.5793 40.2284 53.3682 39.3306 52.4704C38.4329 51.5726 37.2217 51.0584 35.9523 51.036C34.6857 51.0136 33.4598 51.4827 32.5317 52.3445L16.3383 68.5379C15.4207 69.4566 14.9053 70.702 14.9053 72.0005C14.9053 73.2989 15.4206 74.5442 16.3381 75.463L31.6254 76.9005ZM31.6254 76.9005L32.479 77.7541L39.4566 84.7317C40.3184 85.6599 40.7874 86.8857 40.7651 88.1523C40.7427 89.4217 40.2284 90.6329 39.3306 91.5306C38.4329 92.4284 37.2217 92.9427 35.9523 92.9651C34.6857 92.9874 33.4598 92.5184 32.5317 91.6566L16.3383 75.4632L31.6254 76.9005ZM91.6757 111.451L91.6692 111.457L91.663 111.463L75.4632 127.663C74.5444 128.58 73.299 129.096 72.0005 129.096C70.702 129.096 69.4566 128.58 68.5379 127.663L52.3445 111.469C51.4827 110.541 51.0136 109.315 51.036 108.049C51.0584 106.779 51.5726 105.568 52.4704 104.67C53.3682 103.773 54.5793 103.258 55.8488 103.236C57.1153 103.214 58.3411 103.683 59.2693 104.544L66.247 111.522L67.1005 112.376V111.169V91.8005C67.1005 90.501 67.6168 89.2546 68.5357 88.3357C69.4546 87.4168 70.701 86.9005 72.0005 86.9005C73.3001 86.9005 74.5464 87.4168 75.4653 88.3357C76.3843 89.2546 76.9005 90.501 76.9005 91.8005V111.169V112.376L77.7541 111.522L84.7381 104.538L84.7443 104.532L84.7503 104.525C85.1989 104.044 85.7399 103.658 86.3409 103.39C86.942 103.122 87.5909 102.978 88.2488 102.967C88.9067 102.955 89.5602 103.076 90.1704 103.322C90.7805 103.569 91.3347 103.936 91.8 104.401C92.2653 104.866 92.6321 105.421 92.8786 106.031C93.125 106.641 93.2461 107.294 93.2345 107.952C93.2228 108.61 93.0788 109.259 92.811 109.86C92.5432 110.461 92.1571 111.002 91.6757 111.451ZM111.469 52.3445L127.663 68.5379C128.58 69.4566 129.096 70.702 129.096 72.0005C129.096 73.299 128.58 74.5444 127.663 75.4632L111.463 91.663L111.457 91.6692L111.451 91.6757C111.002 92.1571 110.461 92.5432 109.86 92.811C109.259 93.0788 108.61 93.2228 107.952 93.2345C107.294 93.2461 106.641 93.125 106.031 92.8786C105.421 92.6321 104.866 92.2653 104.401 91.8C103.936 91.3347 103.569 90.7805 103.322 90.1704C103.076 89.5602 102.955 88.9067 102.967 88.2488C102.978 87.5909 103.122 86.942 103.39 86.3409C103.658 85.7399 104.044 85.1989 104.525 84.7503L104.532 84.7443L104.538 84.7381L111.522 77.7541L112.376 76.9005H111.169H91.8005C90.501 76.9005 89.2546 76.3843 88.3357 75.4653C87.4168 74.5464 86.9005 73.3001 86.9005 72.0005C86.9005 70.701 87.4168 69.4546 88.3357 68.5357C89.2546 67.6168 90.501 67.1005 91.8005 67.1005H111.169H112.376L111.522 66.247L104.544 59.2693C103.683 58.3411 103.214 57.1153 103.236 55.8488C103.258 54.5793 103.773 53.3682 104.67 52.4704C105.568 51.5726 106.779 51.0584 108.049 51.036C109.315 51.0136 110.541 51.4827 111.469 52.3445Z" stroke="url(#paint1_linear_3335_532)"/>
<defs>
<radialGradient id="paint0_radial_3335_532" cx="0" cy="0" r="1" gradientUnits="userSpaceOnUse" gradientTransform="translate(72.0008 14.4535) rotate(90) scale(143.625 143.626)">
<stop stop-color="#FFFEFE"/>
<stop offset="1" stop-color="white" stop-opacity="0"/>
</radialGradient>
<linearGradient id="paint1_linear_3335_532" x1="135.833" y1="51" x2="-6.42466" y2="183.25" gradientUnits="userSpaceOnUse">
<stop stop-color="#5581FF"/>
<stop offset="1" stop-color="white" stop-opacity="0.19"/>
</linearGradient>
</defs>
</svg>
