<svg width="144" height="144" viewBox="0 0 144 144" fill="none" xmlns="http://www.w3.org/2000/svg">
<path d="M71.039 91.1868L71.4437 91.6541L71.8161 91.1607L110.113 40.4177L110.408 40.0269L110.023 39.7238C108.503 38.5255 107.03 38.3255 105.745 38.6244C104.503 38.913 103.483 39.6551 102.782 40.2781C102.778 40.2813 102.775 40.2838 102.773 40.2853C102.756 40.299 102.74 40.313 102.73 40.3222C102.714 40.3361 102.696 40.3532 102.676 40.3724C102.666 40.3814 102.656 40.3909 102.646 40.4008C102.581 40.464 102.487 40.5566 102.367 40.6753C102.128 40.9134 101.781 41.2631 101.341 41.7079C100.462 42.5977 99.2108 43.8715 97.7116 45.401C94.7132 48.4601 90.7221 52.544 86.7322 56.6295C84.6189 58.7934 82.5073 60.9564 80.5433 62.9681C78.7977 64.7562 77.1686 66.4249 75.7586 67.8686C74.2613 69.4018 73.0127 70.6795 72.137 71.5741C71.7112 72.009 71.3739 72.3531 71.139 72.5918L59.4624 58.7743L59.4625 58.7742L59.4557 58.7665C56.4392 55.3426 52.8541 54.9351 49.8262 55.5546C46.827 56.1683 44.3523 57.788 43.4208 58.4606L42.978 58.7804L43.3355 59.1933L71.039 91.1868ZM14.6122 73.473C6.50649 52.1474 6.49947 32.7499 6.50001 21.4597C26.8536 11.1807 51.5259 6.5 72 6.5C92.4741 6.5 117.146 11.1807 137.5 21.4597C137.501 32.7499 137.494 52.1474 129.388 73.473C121.234 94.9262 104.871 118.359 72 137.422C39.1285 118.359 22.7664 94.9262 14.6122 73.473Z" fill="#ACACAC" fill-opacity="0.2" style="mix-blend-mode:luminosity"/>
<path d="M71.039 91.1868L71.4437 91.6541L71.8161 91.1607L110.113 40.4177L110.408 40.0269L110.023 39.7238C108.503 38.5255 107.03 38.3255 105.745 38.6244C104.503 38.913 103.483 39.6551 102.782 40.2781C102.778 40.2813 102.775 40.2838 102.773 40.2853C102.756 40.299 102.74 40.313 102.73 40.3222C102.714 40.3361 102.696 40.3532 102.676 40.3724C102.666 40.3814 102.656 40.3909 102.646 40.4008C102.581 40.464 102.487 40.5566 102.367 40.6753C102.128 40.9134 101.781 41.2631 101.341 41.7079C100.462 42.5977 99.2108 43.8715 97.7116 45.401C94.7132 48.4601 90.7221 52.544 86.7322 56.6295C84.6189 58.7934 82.5073 60.9564 80.5433 62.9681C78.7977 64.7562 77.1686 66.4249 75.7586 67.8686C74.2613 69.4018 73.0127 70.6795 72.137 71.5741C71.7112 72.009 71.3739 72.3531 71.139 72.5918L59.4624 58.7743L59.4625 58.7742L59.4557 58.7665C56.4392 55.3426 52.8541 54.9351 49.8262 55.5546C46.827 56.1683 44.3523 57.788 43.4208 58.4606L42.978 58.7804L43.3355 59.1933L71.039 91.1868ZM14.6122 73.473C6.50649 52.1474 6.49947 32.7499 6.50001 21.4597C26.8536 11.1807 51.5259 6.5 72 6.5C92.4741 6.5 117.146 11.1807 137.5 21.4597C137.501 32.7499 137.494 52.1474 129.388 73.473C121.234 94.9262 104.871 118.359 72 137.422C39.1285 118.359 22.7664 94.9262 14.6122 73.473Z" fill="#D5D5D5" fill-opacity="0.3" style="mix-blend-mode:multiply"/>
<path d="M71.039 91.1868L71.4437 91.6541L71.8161 91.1607L110.113 40.4177L110.408 40.0269L110.023 39.7238C108.503 38.5255 107.03 38.3255 105.745 38.6244C104.503 38.913 103.483 39.6551 102.782 40.2781C102.778 40.2813 102.775 40.2838 102.773 40.2853C102.756 40.299 102.74 40.313 102.73 40.3222C102.714 40.3361 102.696 40.3532 102.676 40.3724C102.666 40.3814 102.656 40.3909 102.646 40.4008C102.581 40.464 102.487 40.5566 102.367 40.6753C102.128 40.9134 101.781 41.2631 101.341 41.7079C100.462 42.5977 99.2108 43.8715 97.7116 45.401C94.7132 48.4601 90.7221 52.544 86.7322 56.6295C84.6189 58.7934 82.5073 60.9564 80.5433 62.9681C78.7977 64.7562 77.1686 66.4249 75.7586 67.8686C74.2613 69.4018 73.0127 70.6795 72.137 71.5741C71.7112 72.009 71.3739 72.3531 71.139 72.5918L59.4624 58.7743L59.4625 58.7742L59.4557 58.7665C56.4392 55.3426 52.8541 54.9351 49.8262 55.5546C46.827 56.1683 44.3523 57.788 43.4208 58.4606L42.978 58.7804L43.3355 59.1933L71.039 91.1868ZM14.6122 73.473C6.50649 52.1474 6.49947 32.7499 6.50001 21.4597C26.8536 11.1807 51.5259 6.5 72 6.5C92.4741 6.5 117.146 11.1807 137.5 21.4597C137.501 32.7499 137.494 52.1474 129.388 73.473C121.234 94.9262 104.871 118.359 72 137.422C39.1285 118.359 22.7664 94.9262 14.6122 73.473Z" fill="url(#paint0_radial_3335_305)" fill-opacity="0.25" style="mix-blend-mode:overlay"/>
<path d="M71.039 91.1868L71.4437 91.6541L71.8161 91.1607L110.113 40.4177L110.408 40.0269L110.023 39.7238C108.503 38.5255 107.03 38.3255 105.745 38.6244C104.503 38.913 103.483 39.6551 102.782 40.2781C102.778 40.2813 102.775 40.2838 102.773 40.2853C102.756 40.299 102.74 40.313 102.73 40.3222C102.714 40.3361 102.696 40.3532 102.676 40.3724C102.666 40.3814 102.656 40.3909 102.646 40.4008C102.581 40.464 102.487 40.5566 102.367 40.6753C102.128 40.9134 101.781 41.2631 101.341 41.7079C100.462 42.5977 99.2108 43.8715 97.7116 45.401C94.7132 48.4601 90.7221 52.544 86.7322 56.6295C84.6189 58.7934 82.5073 60.9564 80.5433 62.9681C78.7977 64.7562 77.1686 66.4249 75.7586 67.8686C74.2613 69.4018 73.0127 70.6795 72.137 71.5741C71.7112 72.009 71.3739 72.3531 71.139 72.5918L59.4624 58.7743L59.4625 58.7742L59.4557 58.7665C56.4392 55.3426 52.8541 54.9351 49.8262 55.5546C46.827 56.1683 44.3523 57.788 43.4208 58.4606L42.978 58.7804L43.3355 59.1933L71.039 91.1868ZM14.6122 73.473C6.50649 52.1474 6.49947 32.7499 6.50001 21.4597C26.8536 11.1807 51.5259 6.5 72 6.5C92.4741 6.5 117.146 11.1807 137.5 21.4597C137.501 32.7499 137.494 52.1474 129.388 73.473C121.234 94.9262 104.871 118.359 72 137.422C39.1285 118.359 22.7664 94.9262 14.6122 73.473Z" stroke="url(#paint1_linear_3335_305)"/>
<defs>
<radialGradient id="paint0_radial_3335_305" cx="0" cy="0" r="1" gradientUnits="userSpaceOnUse" gradientTransform="translate(72.0003 6.05526) rotate(90) scale(164.583 164.585)">
<stop stop-color="#FFFEFE"/>
<stop offset="1" stop-color="white" stop-opacity="0"/>
</radialGradient>
<linearGradient id="paint1_linear_3335_305" x1="9.24108" y1="10.2256" x2="140.878" y2="112.331" gradientUnits="userSpaceOnUse">
<stop stop-color="#5581FF"/>
<stop offset="1" stop-color="white" stop-opacity="0.19"/>
</linearGradient>
</defs>
</svg>
