<svg width="144" height="144" viewBox="0 0 144 144" fill="none" xmlns="http://www.w3.org/2000/svg">
<path d="M27 12.5H117C120.846 12.5 124.534 14.0277 127.253 16.747C129.972 19.4662 131.5 23.1544 131.5 27V117C131.5 120.846 129.972 124.534 127.253 127.253C124.534 129.972 120.846 131.5 117 131.5H27C23.1544 131.5 19.4662 129.972 16.747 127.253C14.0277 124.534 12.5 120.846 12.5 117V27C12.5 23.1544 14.0277 19.4662 16.747 16.747C19.4662 14.0277 23.1544 12.5 27 12.5ZM62.4447 108.645C63.8888 107.201 64.7 105.242 64.7 103.2V34.8C64.7 30.5639 61.2361 27.1 57 27.1H34.8C32.7578 27.1 30.7993 27.9112 29.3553 29.3553C27.9112 30.7993 27.1 32.7578 27.1 34.8V103.2C27.1 107.436 30.5639 110.9 34.8 110.9H57C59.0422 110.9 61.0007 110.089 62.4447 108.645ZM109.2 80.9C113.436 80.9 116.9 77.4361 116.9 73.2V34.8C116.9 30.5639 113.436 27.1 109.2 27.1H87C82.7639 27.1 79.3 30.5639 79.3 34.8V73.2C79.3 77.4361 82.7639 80.9 87 80.9H109.2Z" fill="#ACACAC" fill-opacity="0.2" style="mix-blend-mode:luminosity"/>
<path d="M27 12.5H117C120.846 12.5 124.534 14.0277 127.253 16.747C129.972 19.4662 131.5 23.1544 131.5 27V117C131.5 120.846 129.972 124.534 127.253 127.253C124.534 129.972 120.846 131.5 117 131.5H27C23.1544 131.5 19.4662 129.972 16.747 127.253C14.0277 124.534 12.5 120.846 12.5 117V27C12.5 23.1544 14.0277 19.4662 16.747 16.747C19.4662 14.0277 23.1544 12.5 27 12.5ZM62.4447 108.645C63.8888 107.201 64.7 105.242 64.7 103.2V34.8C64.7 30.5639 61.2361 27.1 57 27.1H34.8C32.7578 27.1 30.7993 27.9112 29.3553 29.3553C27.9112 30.7993 27.1 32.7578 27.1 34.8V103.2C27.1 107.436 30.5639 110.9 34.8 110.9H57C59.0422 110.9 61.0007 110.089 62.4447 108.645ZM109.2 80.9C113.436 80.9 116.9 77.4361 116.9 73.2V34.8C116.9 30.5639 113.436 27.1 109.2 27.1H87C82.7639 27.1 79.3 30.5639 79.3 34.8V73.2C79.3 77.4361 82.7639 80.9 87 80.9H109.2Z" fill="#D5D5D5" fill-opacity="0.3" style="mix-blend-mode:multiply"/>
<path d="M27 12.5H117C120.846 12.5 124.534 14.0277 127.253 16.747C129.972 19.4662 131.5 23.1544 131.5 27V117C131.5 120.846 129.972 124.534 127.253 127.253C124.534 129.972 120.846 131.5 117 131.5H27C23.1544 131.5 19.4662 129.972 16.747 127.253C14.0277 124.534 12.5 120.846 12.5 117V27C12.5 23.1544 14.0277 19.4662 16.747 16.747C19.4662 14.0277 23.1544 12.5 27 12.5ZM62.4447 108.645C63.8888 107.201 64.7 105.242 64.7 103.2V34.8C64.7 30.5639 61.2361 27.1 57 27.1H34.8C32.7578 27.1 30.7993 27.9112 29.3553 29.3553C27.9112 30.7993 27.1 32.7578 27.1 34.8V103.2C27.1 107.436 30.5639 110.9 34.8 110.9H57C59.0422 110.9 61.0007 110.089 62.4447 108.645ZM109.2 80.9C113.436 80.9 116.9 77.4361 116.9 73.2V34.8C116.9 30.5639 113.436 27.1 109.2 27.1H87C82.7639 27.1 79.3 30.5639 79.3 34.8V73.2C79.3 77.4361 82.7639 80.9 87 80.9H109.2Z" fill="url(#paint0_radial_3335_537)" fill-opacity="0.25" style="mix-blend-mode:overlay"/>
<path d="M27 12.5H117C120.846 12.5 124.534 14.0277 127.253 16.747C129.972 19.4662 131.5 23.1544 131.5 27V117C131.5 120.846 129.972 124.534 127.253 127.253C124.534 129.972 120.846 131.5 117 131.5H27C23.1544 131.5 19.4662 129.972 16.747 127.253C14.0277 124.534 12.5 120.846 12.5 117V27C12.5 23.1544 14.0277 19.4662 16.747 16.747C19.4662 14.0277 23.1544 12.5 27 12.5ZM62.4447 108.645C63.8888 107.201 64.7 105.242 64.7 103.2V34.8C64.7 30.5639 61.2361 27.1 57 27.1H34.8C32.7578 27.1 30.7993 27.9112 29.3553 29.3553C27.9112 30.7993 27.1 32.7578 27.1 34.8V103.2C27.1 107.436 30.5639 110.9 34.8 110.9H57C59.0422 110.9 61.0007 110.089 62.4447 108.645ZM109.2 80.9C113.436 80.9 116.9 77.4361 116.9 73.2V34.8C116.9 30.5639 113.436 27.1 109.2 27.1H87C82.7639 27.1 79.3 30.5639 79.3 34.8V73.2C79.3 77.4361 82.7639 80.9 87 80.9H109.2Z" stroke="url(#paint1_linear_3335_537)"/>
<path d="M27 12.5H117C120.846 12.5 124.534 14.0277 127.253 16.747C129.972 19.4662 131.5 23.1544 131.5 27V117C131.5 120.846 129.972 124.534 127.253 127.253C124.534 129.972 120.846 131.5 117 131.5H27C23.1544 131.5 19.4662 129.972 16.747 127.253C14.0277 124.534 12.5 120.846 12.5 117V27C12.5 23.1544 14.0277 19.4662 16.747 16.747C19.4662 14.0277 23.1544 12.5 27 12.5ZM62.4447 108.645C63.8888 107.201 64.7 105.242 64.7 103.2V34.8C64.7 30.5639 61.2361 27.1 57 27.1H34.8C32.7578 27.1 30.7993 27.9112 29.3553 29.3553C27.9112 30.7993 27.1 32.7578 27.1 34.8V103.2C27.1 107.436 30.5639 110.9 34.8 110.9H57C59.0422 110.9 61.0007 110.089 62.4447 108.645ZM109.2 80.9C113.436 80.9 116.9 77.4361 116.9 73.2V34.8C116.9 30.5639 113.436 27.1 109.2 27.1H87C82.7639 27.1 79.3 30.5639 79.3 34.8V73.2C79.3 77.4361 82.7639 80.9 87 80.9H109.2Z" stroke="url(#paint2_linear_3335_537)"/>
<defs>
<radialGradient id="paint0_radial_3335_537" cx="0" cy="0" r="1" gradientUnits="userSpaceOnUse" gradientTransform="translate(72.0003 12.0502) rotate(90) scale(149.621 149.622)">
<stop stop-color="#FFFEFE"/>
<stop offset="1" stop-color="white" stop-opacity="0"/>
</radialGradient>
<linearGradient id="paint1_linear_3335_537" x1="14.9464" y1="15.8415" x2="134.616" y2="108.664" gradientUnits="userSpaceOnUse">
<stop stop-color="#5581FF"/>
<stop offset="0.209544" stop-color="white" stop-opacity="0.19"/>
</linearGradient>
<linearGradient id="paint2_linear_3335_537" x1="124.222" y1="12" x2="12" y2="132" gradientUnits="userSpaceOnUse">
<stop stop-color="#5581FF"/>
<stop offset="0.314057" stop-color="white" stop-opacity="0"/>
</linearGradient>
</defs>
</svg>
